C:\Users\israe\Dropbox\PhDWork\ExperimentalData\subject14\055\P14S055W03_filtered35.mot
nRows=18
nColumns=28

name C:\Users\israe\Dropbox\PhDWork\ExperimentalData\subject14\055\P14S055W03_filtered35.mot
datacolumns 28
datarows 18
range 2.3250000000 2.3420000000
endheader
time	ground_force_1_vx	ground_force_1_vy	ground_force_1_vz	ground_force_1_px	ground_force_1_py	ground_force_1_pz	ground_moment_1_mx	ground_moment_1_my	ground_moment_1_mz	ground_force_2_vx	ground_force_2_vy	ground_force_2_vz	ground_force_2_px	ground_force_2_py	ground_force_2_pz	ground_moment_2_mx	ground_moment_2_my	ground_moment_2_mz	ground_force_3_vx	ground_force_3_vy	ground_force_3_vz	ground_force_3_px	ground_force_3_py	ground_force_3_pz	ground_moment_3_mx	ground_moment_3_my	ground_moment_3_mz
        2.3250000000	       21.6914818009	      653.3276162722	       12.3964488700	        0.1988394958	        0.0000558755	       -0.3004071327	       83.9956335001	        4.4422484309	      -24.6981574979	       -0.0000000000	        0.0000000000	       -0.0000000000	        0.2029003516	       -0.0000795827	        0.4543649445	       -0.0000000000	       -0.0000000000	        0.0000000000	        0.0000000000	        0.0000000000	       -0.0000000000	        0.2076431971	        0.0000770316	        1.3583900146	        0.0000000000	        0.0000000000	        0.0000000000	
        2.3260000000	       22.0194491642	      648.6612674835	       15.5934738634	        0.1988394958	        0.0000558755	       -0.3004071327	       86.0141808030	        4.1762696018	      -25.2489210910	       -0.0000000000	        0.0000000000	        0.0000000000	        0.2029003516	       -0.0000795827	        0.4543649445	       -0.0000000000	       -0.0000000000	        0.0000000000	        0.0000000000	        0.0000000000	       -0.0000000000	        0.2076431971	        0.0000770316	        1.3583900146	        0.0000000000	        0.0000000000	        0.0000000000	
        2.3270000000	       22.2789079528	      644.0873738197	       18.7817604477	        0.1988394958	        0.0000558755	       -0.3004071327	       87.9997286794	        3.9148785059	      -25.7864144733	        0.0000000000	        0.0000000000	        0.0000000000	        0.2029003516	       -0.0000795827	        0.4543649445	        0.0000000000	        0.0000000000	       -0.0000000000	        0.0000000000	        0.0000000000	       -0.0000000000	        0.2076431971	        0.0000770316	        1.3583900146	        0.0000000000	        0.0000000000	        0.0000000000	
        2.3280000000	       22.4683567917	      639.6248777885	       21.9366620109	        0.1988394958	        0.0000558755	       -0.3004071327	       89.9434673654	        3.6590119973	      -26.3089806010	        0.0000000000	        0.0000000000	        0.0000000000	        0.2029003516	       -0.0000795827	        0.4543649445	        0.0000000000	        0.0000000000	       -0.0000000000	        0.0000000000	        0.0000000000	       -0.0000000000	        0.2076431971	        0.0000770316	        1.3583900146	        0.0000000000	        0.0000000000	        0.0000000000	
        2.3290000000	       22.5937530322	      635.2943716588	       25.0379605301	        0.1988394958	        0.0000558755	       -0.3004071327	       91.8378872372	        3.4083097971	      -26.8151452435	        0.0000000000	        0.0000000000	        0.0000000000	        0.2029003516	       -0.0000795827	        0.4543649445	        0.0000000000	        0.0000000000	       -0.0000000000	        0.0000000000	        0.0000000000	       -0.0000000000	        0.2076431971	        0.0000770316	        1.3583900146	        0.0000000000	        0.0000000000	        0.0000000000	
        2.3300000000	       22.6670373656	      631.1152286195	       28.0698756511	        0.1988394958	        0.0000558755	       -0.3004071327	       93.6769601721	        3.1615477069	      -27.3037883628	        0.0000000000	        0.0000000000	        0.0000000000	        0.2029003516	       -0.0000795827	        0.4543649445	        0.0000000000	        0.0000000000	       -0.0000000000	        0.0000000000	        0.0000000000	       -0.0000000000	        0.2076431971	        0.0000770316	        1.3583900146	        0.0000000000	        0.0000000000	        0.0000000000	
        2.3310000000	       22.7037038355	      627.1051693217	       31.0210242330	        0.1988394958	        0.0000558755	       -0.3004071327	       95.4557423690	        2.9169352799	      -27.7744808662	        0.0000000000	        0.0000000000	        0.0000000000	        0.2029003516	       -0.0000795827	        0.4543649445	        0.0000000000	        0.0000000000	       -0.0000000000	        0.0000000000	        0.0000000000	       -0.0000000000	        0.2076431971	        0.0000770316	        1.3583900146	        0.0000000000	        0.0000000000	        0.0000000000	
        2.3320000000	       22.7202482323	      623.2794683918	       33.8849313570	        0.1988394958	        0.0000558755	       -0.3004071327	       97.1703600487	        2.6722781630	      -28.2275534504	        0.0000000000	        0.0000000000	        0.0000000000	        0.2029003516	       -0.0000795827	        0.4543649445	        0.0000000000	        0.0000000000	       -0.0000000000	        0.0000000000	        0.0000000000	       -0.0000000000	        0.2076431971	        0.0000770316	        1.3583900146	        0.0000000000	        0.0000000000	        0.0000000000	
        2.3330000000	       22.7323893507	      619.6494450903	       36.6593863807	        0.1988394958	        0.0000558755	       -0.3004071327	       98.8183435523	        2.4254452746	      -28.6637601386	        0.0000000000	        0.0000000000	        0.0000000000	        0.2029003516	       -0.0000795827	        0.4543649445	        0.0000000000	        0.0000000000	       -0.0000000000	        0.0000000000	        0.0000000000	       -0.0000000000	        0.2076431971	        0.0000770316	        1.3583900146	        0.0000000000	        0.0000000000	        0.0000000000	
        2.3340000000	       22.7538753482	      616.2232228238	       39.3446831665	        0.1988394958	        0.0000558755	       -0.3004071327	      100.3988521111	        2.1747550979	      -29.0839132570	        0.0000000000	        0.0000000000	        0.0000000000	        0.2029003516	       -0.0000795827	        0.4543649445	        0.0000000000	        0.0000000000	       -0.0000000000	        0.0000000000	        0.0000000000	       -0.0000000000	        0.2076431971	        0.0000770316	        1.3583900146	        0.0000000000	        0.0000000000	        0.0000000000	
        2.3350000000	       22.7957647116	      613.0061326990	       41.9421114538	        0.1988394958	        0.0000558755	       -0.3004071327	      101.9126101691	        1.9190164455	      -29.4888530935	        0.0000000000	        0.0000000000	        0.0000000000	        0.2029003516	       -0.0000795827	        0.4543649445	        0.0000000000	        0.0000000000	       -0.0000000000	        0.0000000000	        0.0000000000	       -0.0000000000	        0.2076431971	        0.0000770316	        1.3583900146	        0.0000000000	        0.0000000000	        0.0000000000	
        2.3360000000	       22.8662025489	      609.9985392928	       44.4529588594	        0.1988394958	        0.0000558755	       -0.3004071327	      103.3616569791	        1.6575763152	      -29.8794819859	        0.0000000000	        0.0000000000	        0.0000000000	        0.2029003516	       -0.0000795827	        0.4543649445	        0.0000000000	        0.0000000000	       -0.0000000000	        0.0000000000	        0.0000000000	       -0.0000000000	        0.2076431971	        0.0000770316	        1.3583900146	        0.0000000000	        0.0000000000	        0.0000000000	
        2.3370000000	       22.9700215692	      607.1934931748	       46.8777647482	        0.1988394958	        0.0000558755	       -0.3004071327	      104.7491617079	        1.3903145787	      -30.2566563800	        0.0000000000	        0.0000000000	        0.0000000000	        0.2029003516	       -0.0000795827	        0.4543649445	        0.0000000000	        0.0000000000	       -0.0000000000	        0.0000000000	        0.0000000000	       -0.0000000000	        0.2076431971	        0.0000770316	        1.3583900146	        0.0000000000	        0.0000000000	        0.0000000000	
        2.3380000000	       23.1079939565	      604.5756213937	       49.2158852349	        0.1988394958	        0.0000558755	       -0.3004071327	      106.0793548842	        1.1176968441	      -30.6212112165	        0.0000000000	        0.0000000000	        0.0000000000	        0.2029003516	       -0.0000795827	        0.4543649445	        0.0000000000	        0.0000000000	       -0.0000000000	       -0.0000000000	        0.0000000000	        0.0000000000	        0.2076431971	        0.0000770316	        1.3583900146	       -0.0000000000	        0.0000000000	       -0.0000000000	
        2.3390000000	       23.2769164623	      602.1218116033	       51.4653288099	        0.1988394958	        0.0000558755	       -0.3004071327	      107.3573353493	        0.8409262292	      -30.9740977687	        0.0000000000	        0.0000000000	        0.0000000000	        0.2029003516	       -0.0000795827	        0.4543649445	        0.0000000000	        0.0000000000	       -0.0000000000	       -0.0000000000	        0.0000000000	        0.0000000000	        0.2076431971	        0.0000770316	        1.3583900146	       -0.0000000000	        0.0000000000	       -0.0000000000	
        2.3400000000	       23.4709657216	      599.8050556620	       53.6223504804	        0.1988394958	        0.0000558755	       -0.3004071327	      108.5886824917	        0.5619287345	      -31.3163885121	        0.0000000000	        0.0000000000	        0.0000000000	        0.2029003516	       -0.0000795827	        0.4543649445	        0.0000000000	        0.0000000000	       -0.0000000000	       -0.0000000000	        0.0000000000	        0.0000000000	        0.2076431971	        0.0000770316	        1.3583900146	       -0.0000000000	       -0.0000000000	       -0.0000000000	
        2.3410000000	       23.6831312885	      597.6002958900	       55.6809522648	        0.1988394958	        0.0000558755	       -0.3004071327	      109.7792582951	        0.2833739544	      -31.6492725240	        0.0000000000	        0.0000000000	        0.0000000000	        0.2029003516	       -0.0000795827	        0.4543649445	        0.0000000000	        0.0000000000	       -0.0000000000	       -0.0000000000	        0.0000000000	        0.0000000000	        0.2076431971	        0.0000770316	        1.3583900146	       -0.0000000000	       -0.0000000000	       -0.0000000000	
        2.3420000000	       23.9059367847	      595.4880655057	       57.6332495583	        0.1988394958	        0.0000558755	       -0.3004071327	      110.9353263053	        0.0086998362	      -31.9740994448	        0.0000000000	        0.0000000000	       -0.0000000000	        0.2029003516	       -0.0000795827	        0.4543649445	        0.0000000000	        0.0000000000	       -0.0000000000	       -0.0000000000	        0.0000000000	        0.0000000000	        0.2076431971	        0.0000770316	        1.3583900146	       -0.0000000000	       -0.0000000000	       -0.0000000000	
